<?xml version="1.0" encoding="utf-8"?>
<!-- Generator: Adobe Illustrator 16.0.0, SVG Export Plug-In . SVG Version: 6.00 Build 0)  -->
<!DOCTYPE svg PUBLIC "-//W3C//DTD SVG 1.1//EN" "http://www.w3.org/Graphics/SVG/1.1/DTD/svg11.dtd">
<svg version="1.1" id="Layer_1" xmlns="http://www.w3.org/2000/svg" xmlns:xlink="http://www.w3.org/1999/xlink" x="0px" y="0px"
	 width="340.934px" height="341.774px" viewBox="0 0 340.934 341.774" enable-background="new 0 0 340.934 341.774"
	 xml:space="preserve">
<path fill="#FFFFFF" d="M-368.496,341.215V183.563h-52.452v-65.119h52.452V85.709c0-46.974,35.24-85.149,78.58-85.149h52.441v64.863
	h-52.441c-6.166,0-13.108,8.425-13.108,19.667v33.355h65.531v65.119h-65.531v157.651H-368.496z"/>
<path fill="#FFFFFF" d="M-110.217,66.052c-12.438,5.508-25.801,9.235-39.825,10.914c14.303-8.579,25.308-22.175,30.479-38.371
	c-13.392,7.955-28.235,13.718-44.033,16.831c-12.653-13.473-30.683-21.898-50.636-21.898c-38.3,0-69.341,31.051-69.341,69.351
	c0,5.436,0.604,10.729,1.781,15.797c-57.628-2.887-108.736-30.499-142.94-72.453c-5.979,10.238-9.388,22.155-9.388,34.87
	c0,24.059,12.245,45.282,30.847,57.731c-11.374-0.369-22.062-3.491-31.41-8.682c0,0.287,0,0.583,0,0.87
	c0,33.611,23.896,61.632,55.622,68.01c-5.814,1.577-11.947,2.428-18.273,2.428c-4.464,0-8.815-0.431-13.043-1.24
	c8.835,27.551,34.439,47.606,64.795,48.16c-23.752,18.602-53.646,29.688-86.142,29.688c-5.6,0-11.118-0.328-16.544-0.962
	c30.693,19.677,67.15,31.152,106.311,31.152c127.583,0,197.334-105.685,197.334-197.333c0-3-0.072-5.989-0.205-8.968
	C-131.276,92.168-119.513,79.955-110.217,66.052z"/>
<path fill="#FFFFFF" d="M19.136,235.87c0.711,0,1.288-0.576,1.395-1.346l3.751-29.431l-3.742-30.113
	c-0.115-0.789-0.692-1.347-1.403-1.347c-0.702,0-1.289,0.577-1.396,1.347c0,0.019-3.289,30.113-3.289,30.113l3.289,29.431
	C17.847,235.293,18.434,235.87,19.136,235.87z M8.094,223.368L8.094,223.368L8.094,223.368L8.094,223.368z M6.757,224.675
	c0.674,0,1.231-0.538,1.337-1.308l2.905-18.274l-2.905-18.62c-0.105-0.779-0.663-1.318-1.337-1.318c-0.702,0-1.25,0.559-1.346,1.318
	l-2.453,18.62l2.453,18.274C5.507,224.137,6.055,224.675,6.757,224.675z M33.986,169.382c-0.105-0.943-0.817-1.654-1.684-1.654
	c-0.885,0-1.597,0.711-1.683,1.654c0,0.019-3.126,35.711-3.126,35.711l3.126,34.394c0.086,0.961,0.798,1.654,1.683,1.654
	c0.866,0,1.578-0.693,1.674-1.654l3.559-34.394L33.986,169.382z M45.574,242.487c1.02,0,1.866-0.808,1.963-1.924l0,0l3.347-35.47
	l-3.347-36.673c-0.097-1.116-0.943-1.943-1.963-1.943c-1.038,0-1.885,0.827-1.972,1.943l-2.952,36.673l2.952,35.47
	C43.69,241.679,44.536,242.487,45.574,242.487z M58.953,243.103c1.192,0,2.154-0.962,2.241-2.231l0,0l3.164-35.778l-3.164-34.038
	c-0.087-1.25-1.049-2.212-2.241-2.212c-1.212,0-2.184,0.962-2.26,2.231l-2.79,34.019l2.79,35.778
	C56.77,242.141,57.741,243.103,58.953,243.103z M77.939,205.131l-2.972-55.389c-0.077-1.404-1.192-2.501-2.539-2.501
	s-2.462,1.097-2.529,2.501l-2.616,55.389l2.616,35.779c0.067,1.385,1.183,2.5,2.529,2.5s2.462-1.115,2.539-2.539v0.039
	L77.939,205.131z M86.018,243.45c1.51,0,2.751-1.232,2.828-2.771l0,0l2.77-35.548l-2.77-68.046
	c-0.077-1.559-1.318-2.789-2.828-2.789s-2.751,1.23-2.818,2.789l-2.442,68.046l2.442,35.548
	C83.267,242.217,84.508,243.45,86.018,243.45z M99.723,128.333c-1.683,0-3.049,1.365-3.106,3.097l-2.289,73.701l2.289,35.201
	c0.058,1.693,1.424,3.039,3.106,3.039c1.674,0,3.04-1.346,3.106-3.077v0.038l2.578-35.201l-2.578-73.701
	C102.763,129.699,101.397,128.333,99.723,128.333z M113.534,243.45c1.847,0,3.328-1.463,3.396-3.348l0,0l2.375-34.971l-2.375-76.183
	c-0.067-1.904-1.549-3.366-3.396-3.366s-3.337,1.462-3.396,3.366l-2.115,76.183l2.115,34.971
	C110.198,241.987,111.688,243.45,113.534,243.45z M127.451,243.411c2.01,0,3.616-1.615,3.674-3.654v0.038l2.184-34.663l-2.184-74.24
	c-0.058-2.058-1.664-3.654-3.674-3.654c-2.02,0-3.646,1.597-3.684,3.654l-1.942,74.24l1.942,34.625
	C123.806,241.795,125.432,243.411,127.451,243.411z M147.418,205.131l-1.972-71.547c-0.058-2.192-1.799-3.924-3.973-3.924
	c-2.183,0-3.924,1.731-3.972,3.943l-1.77,71.527l1.779,34.432c0.038,2.193,1.779,3.924,3.962,3.924c2.174,0,3.915-1.73,3.973-3.962
	v0.038L147.418,205.131z M155.603,243.565c2.299,0,4.213-1.924,4.251-4.271v0.039l1.789-34.201l-1.789-85.108
	c-0.038-2.327-1.952-4.231-4.251-4.231c-2.309,0-4.213,1.904-4.251,4.231l-1.606,85.108c0,0.039,1.606,34.201,1.606,34.201
	C151.39,241.641,153.294,243.565,155.603,243.565z M169.674,107.79c-2.473,0-4.502,2.039-4.54,4.54l-1.856,92.841l1.856,33.662
	c0.038,2.462,2.067,4.501,4.54,4.501c2.462,0,4.501-2.039,4.539-4.501v0.039l2.02-33.701l-2.02-92.86
	C174.175,109.829,172.136,107.79,169.674,107.79z M182.552,243.565c0.105,0.038,113.49,0.076,114.221,0.076
	c22.756,0,41.203-18.428,41.203-41.203c0-22.783-18.447-41.212-41.203-41.212c-5.655,0-11.041,1.135-15.946,3.193
	c-3.289-37.163-34.412-66.286-72.402-66.286c-9.291,0-18.36,1.827-26.362,4.924c-3.107,1.212-3.935,2.443-3.963,4.848v130.812
	C178.127,241.217,180.08,243.333,182.552,243.565z"/>
</svg>
